HIERARCHY
ROOT joint_Root
{
	OFFSET 0.0 0.0 0.0
	CHANNELS 6 Xposition Yposition Zposition Zrotation Xrotation Yrotation 
	JOINT Hips
	{
		OFFSET 4.5925 91.4895 -427.239
		CHANNELS 6 Xposition Yposition Zposition Zrotation Xrotation Yrotation 
		JOINT Spine
		{
			OFFSET 15.7357 0.0 0.0
			CHANNELS 6 Xposition Yposition Zposition Zrotation Xrotation Yrotation 
			JOINT Chest
			{
				OFFSET 8.98455 -0.406207 0.0
				CHANNELS 6 Xposition Yposition Zposition Zrotation Xrotation Yrotation 
				JOINT Neck
				{
					OFFSET 16.3773 0.0 0.0
					CHANNELS 6 Xposition Yposition Zposition Zrotation Xrotation Yrotation 
					JOINT Head
					{
						OFFSET 6.45672 0.0 0.0
						CHANNELS 6 Xposition Yposition Zposition Zrotation Xrotation Yrotation 
						End Site
						{
							OFFSET 0.0 0.0 0.0
						}
					}
				}
				JOINT Shoulder_L
				{
					OFFSET 12.9942 -0.242716 4.98039
					CHANNELS 6 Xposition Yposition Zposition Zrotation Xrotation Yrotation 
					JOINT UpperArm_L
					{
						OFFSET 5.34809 0.0 0.0
						CHANNELS 6 Xposition Yposition Zposition Zrotation Xrotation Yrotation 
						JOINT LowerArm_L
						{
							OFFSET 24.3286 1.87007e-05 0.0
							CHANNELS 6 Xposition Yposition Zposition Zrotation Xrotation Yrotation 
							JOINT Hand_L
							{
								OFFSET 22.2916 0.0 0.0
								CHANNELS 6 Xposition Yposition Zposition Zrotation Xrotation Yrotation 
								End Site
								{
									OFFSET 0.0 0.0 0.0
								}
							}
						}
					}
				}
				JOINT Shoulder_R
				{
					OFFSET 12.9945 -0.242716 -4.98039
					CHANNELS 6 Xposition Yposition Zposition Zrotation Xrotation Yrotation 
					JOINT UpperArm_R
					{
						OFFSET -5.34813 0.0 0.0
						CHANNELS 6 Xposition Yposition Zposition Zrotation Xrotation Yrotation 
						JOINT LowerArm_R
						{
							OFFSET -24.3289 0.000322201 0.0
							CHANNELS 6 Xposition Yposition Zposition Zrotation Xrotation Yrotation 
							JOINT Hand_R
							{
								OFFSET -22.2915 -0.000108084 0.0
								CHANNELS 6 Xposition Yposition Zposition Zrotation Xrotation Yrotation 
								End Site
								{
									OFFSET 0.0 0.0 0.0
								}
							}
						}
					}
				}
			}
		}
		JOINT UpperLeg_L
		{
			OFFSET -2.19248 -6.46944 0.0
			CHANNELS 6 Xposition Yposition Zposition Zrotation Xrotation Yrotation 
			JOINT LowerLeg_L
			{
				OFFSET 39.0811 0.0 -1.23785e-05
				CHANNELS 6 Xposition Yposition Zposition Zrotation Xrotation Yrotation 
				JOINT Foot_L
				{
					OFFSET 40.9854 0.0 -1.26872e-05
					CHANNELS 6 Xposition Yposition Zposition Zrotation Xrotation Yrotation 
					JOINT Toes_L
					{
						OFFSET 11.7543 0.0 0.0
						CHANNELS 6 Xposition Yposition Zposition Zrotation Xrotation Yrotation 
						End Site
						{
							OFFSET 0.0 0.0 0.0
						}
					}
				}
			}
		}
		JOINT UpperLeg_R
		{
			OFFSET -2.19251 6.46944 0.0
			CHANNELS 6 Xposition Yposition Zposition Zrotation Xrotation Yrotation 
			JOINT LowerLeg_R
			{
				OFFSET -39.0811 -0.00228153 -0.0401928
				CHANNELS 6 Xposition Yposition Zposition Zrotation Xrotation Yrotation 
				JOINT Foot_R
				{
					OFFSET -40.9854 0.0 0.0
					CHANNELS 6 Xposition Yposition Zposition Zrotation Xrotation Yrotation 
					JOINT Toes_R
					{
						OFFSET -11.7543 0.0 0.0
						CHANNELS 6 Xposition Yposition Zposition Zrotation Xrotation Yrotation 
						End Site
						{
							OFFSET 0.0 0.0 0.0
						}
					}
				}
			}
		}
	}
}
MOTION
Frames:	5
Frame Time:	0.0333333
0.000000 0.000000 0.000000 0.000000 0.000000 -0.000000 1.441690 90.282200 4.139010 89.087900 -7.185360 11.933700 15.735700 0.000005 -0.000001 87.748700 85.003600 -88.312100 8.984550 -0.406207 -0.000000 2.217540 -0.364985 -1.118580 16.377300 -0.000001 -0.000001 27.685400 -4.573530 1.800400 6.456720 -0.000001 -0.000000 22.130200 -6.591720 -2.854920 12.994200 -0.242716 4.980390 -87.400000 -6.891510 -69.271100 5.348090 -0.000007 -0.000001 -52.090600 -37.922300 -80.524000 24.328600 0.000019 0.000005 18.174500 11.572700 -58.571700 22.291600 -0.000001 0.000005 16.362400 5.240050 1.694280 12.994500 -0.242716 -4.980390 90.880700 -3.398130 -75.461300 -5.348130 -0.000001 -0.000004 -42.142600 -37.222500 -74.892100 -24.328900 0.000322 -0.000009 4.083760 3.263870 -51.437900 -22.291500 -0.000108 -0.000004 23.182200 5.456110 -4.859350 -2.192480 -6.469440 -0.000000 -173.921000 -15.428700 5.875210 39.081100 -0.000007 -0.000012 -0.193764 0.325833 30.739200 40.985400 -0.000006 -0.000013 0.814505 3.559280 -74.145500 11.754300 -0.000000 0.000003 -0.000243 -0.002180 -16.659300 -2.192510 6.469440 -0.000001 170.682000 19.744300 -173.566000 -39.081100 -0.002282 -0.040193 -0.244566 0.433596 29.755100 -40.985400 0.000008 0.000006 2.285530 16.718900 -73.009300 -11.754300 -0.000006 -0.000006 -0.001946 -0.028040 -17.713300
0.000000 0.000000 0.000000 0.000000 0.000000 -0.000000 1.516730 90.282200 4.176120 89.135600 -6.771190 11.954500 15.735700 0.000005 -0.000001 87.907300 85.009700 -88.459100 8.984550 -0.406207 -0.000000 2.206640 -0.337441 -1.095920 16.377300 -0.000001 -0.000001 27.782500 -4.517570 1.955510 6.456720 -0.000001 -0.000000 22.201100 -6.486780 -2.604180 12.994200 -0.242716 4.980390 -87.396000 -6.928130 -69.342000 5.348090 -0.000007 -0.000001 -52.865500 -37.657400 -80.770600 24.328600 0.000019 0.000005 18.204400 11.536900 -58.694300 22.291600 -0.000001 0.000005 16.422300 5.238360 1.738330 12.994500 -0.242716 -4.980390 90.886300 -3.431470 -75.508000 -5.348130 -0.000001 -0.000004 -41.991500 -37.319000 -74.669900 -24.328900 0.000322 -0.000009 4.106170 3.265900 -51.573800 -22.291500 -0.000108 -0.000004 23.185900 5.457540 -4.911310 -2.192480 -6.469440 -0.000000 -174.045000 -15.244500 5.855740 39.081100 -0.000007 -0.000012 -0.190447 0.320417 30.726300 40.985400 -0.000006 -0.000013 0.936521 3.762320 -74.139600 11.754300 -0.000000 0.000003 -0.000268 -0.002371 -16.666200 -2.192510 6.469440 -0.000001 170.492000 20.029700 -173.419000 -39.081100 -0.002282 -0.040193 -0.239492 0.425323 29.720100 -40.985400 0.000008 0.000006 2.258480 16.626100 -73.041200 -11.754300 -0.000006 -0.000006 -0.001785 -0.025993 -17.630000
0.000000 0.000000 0.000000 0.000000 0.000000 -0.000000 1.596990 90.267200 4.219110 89.195400 -6.343360 11.995500 15.735700 0.000005 -0.000001 87.951300 85.006500 -88.498300 8.984550 -0.406207 -0.000000 2.213210 -0.330273 -1.086620 16.377300 -0.000001 -0.000001 27.782000 -4.426720 2.051300 6.456720 -0.000001 -0.000000 22.313300 -6.305150 -2.333540 12.994200 -0.242716 4.980390 -87.379700 -6.994290 -69.402600 5.348090 -0.000007 -0.000001 -53.527200 -37.435300 -80.933500 24.328600 0.000019 0.000005 18.265500 11.562500 -58.729900 22.291600 -0.000001 0.000005 16.488900 5.239440 1.710010 12.994500 -0.242716 -4.980390 90.886000 -3.442430 -75.556700 -5.348130 -0.000001 -0.000004 -41.846500 -37.357400 -74.525900 -24.328900 0.000322 -0.000009 4.121130 3.280680 -51.549700 -22.291500 -0.000108 -0.000004 23.191100 5.458330 -4.940200 -2.192480 -6.469440 -0.000000 -174.193000 -15.001300 5.830910 39.081100 -0.000007 -0.000012 -0.189782 0.318683 30.774900 40.985400 -0.000006 -0.000013 1.038090 3.900080 -74.173000 11.754300 -0.000000 0.000003 -0.000259 -0.002298 -16.663600 -2.192510 6.469440 -0.000001 170.269000 20.302300 -173.279000 -39.081100 -0.002282 -0.040193 -0.241293 0.427813 29.758500 -40.985400 0.000008 0.000006 2.217150 16.520100 -73.112000 -11.754300 -0.000006 -0.000006 -0.002044 -0.029269 -17.763300
0.000000 0.000000 0.000000 0.000000 0.000000 -0.000000 1.663640 90.260200 4.263250 89.255300 -5.884670 12.003500 15.735700 0.000005 -0.000001 87.864200 85.018000 -88.396000 8.984550 -0.406207 -0.000000 2.189650 -0.345200 -1.056140 16.377300 -0.000001 -0.000001 27.876600 -4.341140 2.132130 6.456720 -0.000001 -0.000000 22.227500 -6.112410 -2.160830 12.994200 -0.242716 4.980390 -87.358900 -7.056390 -69.418500 5.348090 -0.000007 -0.000001 -54.072600 -37.185500 -80.992000 24.328600 0.000019 0.000005 18.201200 11.544800 -58.672500 22.291600 -0.000001 0.000005 16.426400 5.240400 1.684960 12.994500 -0.242716 -4.980390 90.891500 -3.470500 -75.584000 -5.348130 -0.000001 -0.000004 -41.829100 -37.350300 -74.497300 -24.328900 0.000322 -0.000009 4.079070 3.256650 -51.467400 -22.291500 -0.000108 -0.000004 23.102500 5.459530 -4.984600 -2.192480 -6.469440 -0.000000 -174.348000 -14.753400 5.802330 39.081100 -0.000007 -0.000012 -0.187130 0.314220 30.775600 40.985400 -0.000006 -0.000013 1.149320 4.077000 -74.189100 11.754300 -0.000000 0.000003 -0.000252 -0.002247 -16.661700 -2.192510 6.469440 -0.000001 170.088000 20.513800 -173.160000 -39.081100 -0.002282 -0.040193 -0.241074 0.427684 29.743800 -40.985400 0.000008 0.000006 2.074150 16.371300 -73.124700 -11.754300 -0.000006 -0.000006 -0.001906 -0.027534 -17.692700
0.000000 0.000000 0.000000 0.000000 0.000000 -0.000000 1.739890 90.257900 4.310120 89.336100 -5.485950 11.998100 15.735700 0.000005 -0.000001 88.067600 85.042000 -88.579000 8.984550 -0.406207 -0.000000 2.143280 -0.309051 -1.015930 16.377300 -0.000001 -0.000001 27.867800 -4.231310 2.228490 6.456720 -0.000001 -0.000000 22.238400 -5.944550 -2.054960 12.994200 -0.242716 4.980390 -87.334700 -7.133440 -69.450600 5.348090 -0.000007 -0.000001 -54.325700 -36.977200 -80.857000 24.328600 0.000019 0.000005 18.088000 11.518200 -58.560100 22.291600 -0.000001 0.000005 16.447000 5.240530 1.681700 12.994500 -0.242716 -4.980390 90.901400 -3.515340 -75.607400 -5.348130 -0.000001 -0.000004 -41.847000 -37.324100 -74.521500 -24.328900 0.000322 -0.000009 4.094530 3.285780 -51.325000 -22.291500 -0.000108 -0.000004 23.085400 5.458870 -4.959620 -2.192480 -6.469440 -0.000000 -174.518000 -14.584300 5.787920 39.081100 -0.000007 -0.000012 -0.184342 0.310022 30.736400 40.985400 -0.000006 -0.000013 1.251000 4.213410 -74.186700 11.754300 -0.000000 0.000003 -0.000232 -0.002096 -16.656300 -2.192510 6.469440 -0.000001 169.911000 20.685400 -173.062000 -39.081100 -0.002282 -0.040193 -0.235895 0.418417 29.755800 -40.985400 0.000008 0.000006 2.201690 16.156400 -73.246700 -11.754300 -0.000006 -0.000006 -0.002158 -0.030677 -17.820500
